<svg width="256" height="256" viewBox="0 0 256 256" fill="none" xmlns="http://www.w3.org/2000/svg">
<rect width="256" height="256" fill="white"/>
<path d="M183.466 16H62.9979C60.2453 16 58.0139 18.2301 58.0139 20.9811V54.2548C58.0139 56.3181 56.3405 57.9906 54.2761 57.9906H20.9839C18.2314 57.9906 16 60.2207 16 62.9718V183.373C16 186.015 17.0502 188.549 18.9195 190.417L65.6105 237.082C67.4798 238.95 70.0151 240 72.6587 240H193.126C195.879 240 198.111 237.77 198.111 235.019V201.745C198.111 199.682 199.784 198.01 201.848 198.01H235.141C237.893 198.01 240.124 195.779 240.124 193.028V72.6273C240.124 69.9851 239.074 67.4512 237.205 65.5829L190.514 18.9179C188.645 17.0496 186.109 16 183.466 16ZM84.5887 196.552L59.4753 171.475C58.5396 170.541 58.0139 169.273 58.0139 167.951V61.7265C58.0139 59.6632 59.6875 57.9906 61.7519 57.9906H168.036C169.358 57.9906 170.626 58.516 171.561 59.4511L196.653 84.5506C197.586 85.4847 198.111 86.7509 198.111 88.0712V194.273C198.111 196.336 196.437 198.01 194.372 198.01H88.1113C86.7902 198.01 85.5233 197.486 84.5887 196.552Z" fill="black"/>
<path d="M124.547 90.4588L90.5046 124.482C88.5583 126.428 88.5583 129.582 90.5046 131.527L124.547 165.551C126.494 167.496 129.65 167.496 131.596 165.551L165.639 131.527C167.585 129.582 167.585 126.428 165.639 124.482L131.596 90.4588C129.65 88.5136 126.494 88.5136 124.547 90.4588Z" fill="#F33736"/>
</svg>
